# xmcd
#
# Track frame offsets: 
#        150
#        26198
#        41613
#        63532
#        86933
#        100849
#        124912
#        140926
#        180809
#        199160
#        228659
#        251259
#        271354
#        289764
#
# Disc length: 4164 seconds
#
# Revision: 0
# Processed by: cddbd v1.5.2PL0 Copyright (c) Steve Scherf et al.
# Submitted via: ExactAudioCopy v0.99pb5
#
DISCID=d310420e
DTITLE=Big Dave McLean - Outside The Box
DYEAR=2011
DGENRE=Blues
TTITLE0=Roll'n and Tumble'n
TTITLE1=Daddie - O
TTITLE2=You Gotta Move
TTITLE3=Her Soul Goes On
TTITLE4=See That My Grave Is Kept Clean
TTITLE5=Legend
TTITLE6=Can't Be Satisfied
TTITLE7=Trouble'n Mind
TTITLE8=Mother Nature's Party
TTITLE9=Closer To The End
TTITLE10=Drink'n and Stink'n
TTITLE11=The Redwood
TTITLE12=Better Days Are Comin'
TTITLE13=Sittin' On Top of The World
EXTD=
EXTT0=
EXTT1=
EXTT2=
EXTT3=
EXTT4=
EXTT5=
EXTT6=
EXTT7=
EXTT8=
EXTT9=
EXTT10=
EXTT11=
EXTT12=
EXTT13=
PLAYORDER=
